<svg viewBox="0 0 1400 1000" xmlns="http://www.w3.org/2000/svg">
  <!-- Background -->
  <rect width="1400" height="1000" fill="#f8f9fa"/>
  
  <!-- Title -->
  <text x="700" y="30" text-anchor="middle" font-size="24" font-weight="bold" fill="#1a1a1a">NexDoc.dev System Architecture</text>
  
  <!-- External Services Layer -->
  <g id="external-layer">
    <rect x="50" y="60" width="1300" height="120" fill="#e3f2fd" stroke="#1976d2" stroke-width="2" rx="8"/>
    <text x="70" y="85" font-size="14" font-weight="bold" fill="#1976d2">External Services</text>
    
    <!-- TipTap Cloud -->
    <rect x="100" y="100" width="150" height="60" fill="#fff" stroke="#1976d2" stroke-width="2" rx="4"/>
    <text x="175" y="135" text-anchor="middle" font-size="12" fill="#333">TipTap Cloud</text>
    <text x="175" y="150" text-anchor="middle" font-size="10" fill="#666">(Collab Sync)</text>
    
    <!-- Cloud Storage -->
    <rect x="300" y="100" width="150" height="60" fill="#fff" stroke="#1976d2" stroke-width="2" rx="4"/>
    <text x="375" y="125" text-anchor="middle" font-size="12" fill="#333">OneDrive</text>
    <text x="375" y="140" text-anchor="middle" font-size="12" fill="#333">Google Drive</text>
    <text x="375" y="155" text-anchor="middle" font-size="10" fill="#666">(File Sources)</text>
    
    <!-- LLM Providers -->
    <rect x="500" y="100" width="150" height="60" fill="#fff" stroke="#1976d2" stroke-width="2" rx="4"/>
    <text x="575" y="125" text-anchor="middle" font-size="12" fill="#333">OpenAI</text>
    <text x="575" y="140" text-anchor="middle" font-size="12" fill="#333">Anthropic</text>
    <text x="575" y="155" text-anchor="middle" font-size="10" fill="#666">(LLM Providers)</text>
    
    <!-- Future: LGTM Stack -->
    <rect x="900" y="100" width="150" height="60" fill="#fff" stroke="#9e9e9e" stroke-width="2" stroke-dasharray="5,5" rx="4"/>
    <text x="975" y="125" text-anchor="middle" font-size="12" fill="#666">LGTM Stack</text>
    <text x="975" y="140" text-anchor="middle" font-size="10" fill="#999">(Grafana, Loki,</text>
    <text x="975" y="155" text-anchor="middle" font-size="10" fill="#999">Tempo, Mimir)</text>
    
    <!-- Future: OpenMeter -->
    <rect x="1100" y="100" width="150" height="60" fill="#fff" stroke="#9e9e9e" stroke-width="2" stroke-dasharray="5,5" rx="4"/>
    <text x="1175" y="135" text-anchor="middle" font-size="12" fill="#666">OpenMeter</text>
    <text x="1175" y="150" text-anchor="middle" font-size="10" fill="#999">(Future: Billing)</text>
  </g>
  
  <!-- Edge Layer -->
  <g id="edge-layer">
    <rect x="50" y="210" width="1300" height="100" fill="#e8f5e9" stroke="#4caf50" stroke-width="2" rx="8"/>
    <text x="70" y="235" font-size="14" font-weight="bold" fill="#2e7d32">Edge / Proxy Layer</text>
    
    <!-- Traefik -->
    <rect x="550" y="240" width="300" height="50" fill="#fff" stroke="#4caf50" stroke-width="2" rx="4"/>
    <text x="700" y="260" text-anchor="middle" font-size="12" fill="#333">Traefik Proxy</text>
    <text x="700" y="275" text-anchor="middle" font-size="10" fill="#666">+ keycloakopenid middleware</text>
    <text x="700" y="290" text-anchor="middle" font-size="9" fill="#999">(Headers: X-User, X-Organization)</text>
  </g>
  
  <!-- Auth Layer -->
  <g id="auth-layer">
    <rect x="50" y="340" width="400" height="100" fill="#fce4ec" stroke="#c2185b" stroke-width="2" rx="8"/>
    <text x="70" y="365" font-size="14" font-weight="bold" fill="#880e4f">Authentication</text>
    
    <!-- Keycloak -->
    <rect x="100" y="375" width="300" height="50" fill="#fff" stroke="#c2185b" stroke-width="2" rx="4"/>
    <text x="250" y="395" text-anchor="middle" font-size="12" fill="#333">Keycloak</text>
    <text x="250" y="410" text-anchor="middle" font-size="10" fill="#666">(Single realm)</text>
  </g>
  
  <!-- Application Layer -->
  <g id="app-layer">
    <rect x="50" y="470" width="1300" height="280" fill="#f3e5f5" stroke="#7b1fa2" stroke-width="2" rx="8"/>
    <text x="70" y="495" font-size="14" font-weight="bold" fill="#4a148c">Application Services</text>
    
    <!-- Frontend -->
    <rect x="100" y="510" width="250" height="80" fill="#fff" stroke="#7b1fa2" stroke-width="2" rx="4"/>
    <text x="225" y="530" text-anchor="middle" font-size="12" font-weight="bold" fill="#333">Frontend</text>
    <text x="225" y="545" text-anchor="middle" font-size="10" fill="#666">React + Vite</text>
    <text x="225" y="560" text-anchor="middle" font-size="10" fill="#666">Uppy File Manager</text>
    <text x="225" y="575" text-anchor="middle" font-size="10" fill="#666">TipTap Editor</text>
    
    <!-- Companion Server -->
    <rect x="100" y="610" width="250" height="50" fill="#fff" stroke="#7b1fa2" stroke-width="2" rx="4"/>
    <text x="225" y="630" text-anchor="middle" font-size="12" font-weight="bold" fill="#333">Uppy Companion</text>
    <text x="225" y="645" text-anchor="middle" font-size="10" fill="#666">(File upload proxy)</text>
    
    <!-- Backend Service -->
    <rect x="400" y="510" width="300" height="150" fill="#fff" stroke="#7b1fa2" stroke-width="2" rx="4"/>
    <text x="550" y="530" text-anchor="middle" font-size="12" font-weight="bold" fill="#333">Backend Service (Python)</text>
    <text x="550" y="550" text-anchor="middle" font-size="10" fill="#666">APIs:</text>
    <text x="550" y="565" text-anchor="middle" font-size="9" fill="#666">• Space Management</text>
    <text x="550" y="580" text-anchor="middle" font-size="9" fill="#666">• User Permissions</text>
    <text x="550" y="595" text-anchor="middle" font-size="9" fill="#666">• File Operations</text>
    <text x="550" y="610" text-anchor="middle" font-size="9" fill="#666">• Document Import/Export</text>
    <text x="550" y="625" text-anchor="middle" font-size="9" fill="#666">• TipTap Integration</text>
    <text x="550" y="640" text-anchor="middle" font-size="9" fill="#666">• R2R Communication</text>
    
    <!-- LiteLLM -->
    <rect x="750" y="510" width="250" height="80" fill="#fff" stroke="#7b1fa2" stroke-width="2" rx="4"/>
    <text x="875" y="530" text-anchor="middle" font-size="12" font-weight="bold" fill="#333">LiteLLM Gateway</text>
    <text x="875" y="545" text-anchor="middle" font-size="10" fill="#666">• LLM Provider Routing</text>
    <text x="875" y="560" text-anchor="middle" font-size="10" fill="#666">• Usage Tracking</text>
    <text x="875" y="575" text-anchor="middle" font-size="10" fill="#666">• Per-org Metrics</text>
    
    <!-- R2R Service -->
    <rect x="1050" y="510" width="250" height="80" fill="#fff" stroke="#7b1fa2" stroke-width="2" rx="4"/>
    <text x="1175" y="530" text-anchor="middle" font-size="12" font-weight="bold" fill="#333">R2R Service</text>
    <text x="1175" y="545" text-anchor="middle" font-size="10" fill="#666">• Document Ingestion</text>
    <text x="1175" y="560" text-anchor="middle" font-size="10" fill="#666">• Vector Search</text>
    <text x="1175" y="575" text-anchor="middle" font-size="10" fill="#666">• RAG Generation</text>
    
    <!-- OpenTelemetry -->
    <rect x="400" y="680" width="300" height="50" fill="#fff" stroke="#9e9e9e" stroke-width="2" stroke-dasharray="5,5" rx="4"/>
    <text x="550" y="700" text-anchor="middle" font-size="12" fill="#666">OpenTelemetry</text>
    <text x="550" y="715" text-anchor="middle" font-size="10" fill="#999">(Metrics, Logs, Traces)</text>
  </g>
  
  <!-- Data Layer -->
  <g id="data-layer">
    <rect x="50" y="780" width="1300" height="100" fill="#fff3e0" stroke="#ff6f00" stroke-width="2" rx="8"/>
    <text x="70" y="805" font-size="14" font-weight="bold" fill="#e65100">Data Storage</text>
    
    <!-- PostgreSQL -->
    <rect x="350" y="815" width="300" height="50" fill="#fff" stroke="#ff6f00" stroke-width="2" rx="4"/>
    <text x="500" y="835" text-anchor="middle" font-size="12" font-weight="bold" fill="#333">PostgreSQL</text>
    <text x="500" y="850" text-anchor="middle" font-size="10" fill="#666">Organizations, Users, Spaces, Documents</text>
    
    <!-- MinIO -->
    <rect x="750" y="815" width="300" height="50" fill="#fff" stroke="#ff6f00" stroke-width="2" rx="4"/>
    <text x="900" y="835" text-anchor="middle" font-size="12" font-weight="bold" fill="#333">MinIO (S3)</text>
    <text x="900" y="850" text-anchor="middle" font-size="10" fill="#666">Files, Document Versions, Exports</text>
  </g>
  
  <!-- Connection Lines -->
  <defs>
    <marker id="arrowhead" markerWidth="10" markerHeight="7" refX="9" refY="3.5" orient="auto">
      <polygon points="0 0, 10 3.5, 0 7" fill="#666"/>
    </marker>
  </defs>
  
  <!-- Traefik to Keycloak -->
  <line x1="700" y1="290" x2="400" y2="375" stroke="#666" stroke-width="2" marker-end="url(#arrowhead)"/>
  
  <!-- Traefik to Services -->
  <line x1="700" y1="290" x2="225" y2="510" stroke="#666" stroke-width="2" marker-end="url(#arrowhead)"/>
  <line x1="700" y1="290" x2="550" y2="510" stroke="#666" stroke-width="2" marker-end="url(#arrowhead)"/>
  
  <!-- Frontend to Companion -->
  <line x1="225" y1="590" x2="225" y2="610" stroke="#666" stroke-width="2" marker-end="url(#arrowhead)"/>
  
  <!-- Backend to Data -->
  <line x1="550" y1="660" x2="500" y2="815" stroke="#666" stroke-width="2" marker-end="url(#arrowhead)"/>
  <line x1="550" y1="660" x2="900" y2="815" stroke="#666" stroke-width="2" marker-end="url(#arrowhead)"/>
  
  <!-- Backend to TipTap Cloud -->
  <line x1="400" y1="510" x2="175" y2="160" stroke="#666" stroke-width="2" marker-end="url(#arrowhead)"/>
  <text x="250" y="320" font-size="9" fill="#666" transform="rotate(-60 250 320)">Document Sync</text>
  
  <!-- Backend to LiteLLM -->
  <line x1="700" y1="585" x2="750" y2="550" stroke="#666" stroke-width="2" marker-end="url(#arrowhead)"/>
  
  <!-- LiteLLM to External -->
  <line x1="875" y1="510" x2="575" y2="160" stroke="#666" stroke-width="2" marker-end="url(#arrowhead)"/>
  
  <!-- Backend to R2R -->
  <line x1="700" y1="585" x2="1050" y2="550" stroke="#666" stroke-width="2" marker-end="url(#arrowhead)"/>
  
  <!-- Frontend to TipTap Cloud -->
  <line x1="225" y1="510" x2="175" y2="160" stroke="#666" stroke-width="2" marker-end="url(#arrowhead)"/>
  
  <!-- Companion to Cloud Storage -->
  <line x1="225" y1="610" x2="375" y2="160" stroke="#666" stroke-width="2" marker-end="url(#arrowhead)"/>
  
  <!-- Companion to MinIO -->
  <line x1="350" y1="635" x2="750" y2="840" stroke="#666" stroke-width="2" marker-end="url(#arrowhead)"/>
  
  <!-- R2R to MinIO -->
  <line x1="1175" y1="590" x2="1000" y2="815" stroke="#666" stroke-width="2" marker-end="url(#arrowhead)"/>
  
  <!-- OpenTelemetry to LGTM -->
  <line x1="700" y1="690" x2="975" y2="160" stroke="#999" stroke-width="2" stroke-dasharray="5,5" marker-end="url(#arrowhead)"/>
  
  <!-- OpenMeter connections -->
  <line x1="875" y1="590" x2="1175" y2="160" stroke="#999" stroke-width="2" stroke-dasharray="5,5" marker-end="url(#arrowhead)"/>
  <line x1="900" y1="865" x2="1175" y2="160" stroke="#999" stroke-width="2" stroke-dasharray="5,5" marker-end="url(#arrowhead)"/>
  
  <!-- Legend -->
  <g id="legend" transform="translate(50, 910)">
    <text x="0" y="15" font-size="12" font-weight="bold" fill="#333">Legend:</text>
    <line x1="100" y1="10" x2="150" y2="10" stroke="#666" stroke-width="2" marker-end="url(#arrowhead)"/>
    <text x="160" y="15" font-size="10" fill="#666">Active Connection</text>
    <line x1="300" y1="10" x2="350" y2="10" stroke="#999" stroke-width="2" stroke-dasharray="5,5" marker-end="url(#arrowhead)"/>
    <text x="360" y="15" font-size="10" fill="#999">Future Connection</text>
    <rect x="500" y="0" width="80" height="20" fill="#fff" stroke="#9e9e9e" stroke-width="2" stroke-dasharray="5,5" rx="2"/>
    <text x="590" y="15" font-size="10" fill="#999">Future Component</text>
  </g>
  
</svg>